<svg width="56" height="57" viewBox="0 0 56 57" fill="none" xmlns="http://www.w3.org/2000/svg">
<path d="M18.6666 5.6626H37.3333M18.6666 5.6626H9.33325V17.3293L18.6666 24.3293M18.6666 5.6626V24.3293M37.3333 5.6626H46.6666V17.3293L37.3333 24.3293M37.3333 5.6626V24.3293M18.6666 27.8941C21.1434 25.6772 24.4143 24.3293 27.9999 24.3293C31.5856 24.3293 34.8564 25.6772 37.3333 27.8941M18.6666 27.8941C15.8024 30.4576 13.9999 34.1829 13.9999 38.3293C13.9999 46.0612 20.268 52.3293 27.9999 52.3293C35.7319 52.3293 41.9999 46.0612 41.9999 38.3293C41.9999 34.1829 40.1974 30.4576 37.3333 27.8941M18.6666 27.8941V24.3293M37.3333 27.8941V24.3293" stroke="#1E1A22" stroke-width="2" stroke-linecap="round" stroke-linejoin="round"/>
<path d="M37.3333 5.6626H46.6666V17.3293L37.3333 24.3293" stroke="#1E1A22" stroke-width="2" stroke-linecap="round" stroke-linejoin="round"/>
<path d="M18.6666 5.6626H9.33325V17.3293L18.6666 24.3293" stroke="#1E1A22" stroke-width="2" stroke-linecap="round" stroke-linejoin="round"/>
<path d="M42 38.3296C42 34.1833 40.1975 30.458 37.3333 27.8945C34.8565 25.6776 31.5856 24.3296 28 24.3296C24.4144 24.3296 21.1435 25.6776 18.6667 27.8945C15.8025 30.458 14 34.1833 14 38.3296C14 46.0616 20.268 52.3296 28 52.3296C35.732 52.3296 42 46.0616 42 38.3296Z" stroke="#1E1A22" stroke-width="2" stroke-linecap="round" stroke-linejoin="round"/>
<path d="M18.6667 5.66309H37.3334V24.3298V27.8946C34.8566 25.6777 31.5857 24.3298 28.0001 24.3298C24.4144 24.3298 21.1436 25.6777 18.6667 27.8946V24.3298V5.66309Z" stroke="#1E1A22" stroke-width="2" stroke-linecap="round" stroke-linejoin="round"/>
<path d="M28.0001 44.1628V32.4961L25.6667 33.6628M28.0001 44.1628H30.3334M28.0001 44.1628H25.6667" stroke="#1E1A22" stroke-width="2" stroke-linecap="round" stroke-linejoin="round"/>
</svg>
