<svg width="56" height="57" viewBox="0 0 56 57" fill="none" xmlns="http://www.w3.org/2000/svg">
<path d="M49 28.9961V11.4961C49 9.5631 47.433 7.99609 45.5 7.99609H10.5C8.56701 7.99609 7 9.5631 7 11.4961V46.4961C7 48.4291 8.56701 49.9961 10.5 49.9961H28" stroke="#1E1A22" stroke-width="2" stroke-linecap="round" stroke-linejoin="round"/>
<path d="M37.3335 45.3296C41.1995 45.3296 44.3335 42.1956 44.3335 38.3296C44.3335 34.4636 41.1995 31.3296 37.3335 31.3296C33.4675 31.3296 30.3335 34.4636 30.3335 38.3296C30.3335 42.1956 33.4675 45.3296 37.3335 45.3296Z" stroke="#1E1A22" stroke-width="2"/>
<path d="M43.1665 42.9961L48.9998 47.6628" stroke="#1E1A22" stroke-width="2" stroke-linecap="round" stroke-linejoin="round"/>
<path d="M16.3335 19.6626H39.6668" stroke="#1E1A22" stroke-width="2" stroke-linecap="round" stroke-linejoin="round"/>
<path d="M16.3335 28.9961H25.6668" stroke="#1E1A22" stroke-width="2" stroke-linecap="round" stroke-linejoin="round"/>
</svg>
