<svg width="56" height="56" viewBox="0 0 56 56" fill="none" xmlns="http://www.w3.org/2000/svg">
<path d="M14 46.6662C14 38.2899 20.268 31.4995 28 31.4995C35.732 31.4995 42 38.2899 42 46.6662" stroke="#1E1A22" stroke-width="2" stroke-linecap="round"/>
<path d="M15.1667 43.1663C15.1667 44.333 18.0834 45.4997 19.8334 44.333C21.5834 43.1663 22.1197 40.2438 23.9164 40.7469C25.7129 41.25 25.6667 44.9163 28.0001 46.6663C30.3334 48.4163 34.4167 47.833 36.1667 44.9163C37.9167 41.9997 36.0742 41.2122 37.4048 39.3199C38.2918 38.0585 39.424 38.3679 39.6667 38.4997" stroke="#1E1A22" stroke-width="2" stroke-linecap="round"/>
<path d="M26.8333 24.4995H29.1666" stroke="#1E1A22" stroke-width="2" stroke-linecap="round" stroke-linejoin="round"/>
<path d="M37.51 26.2148L39.4888 27.4513" stroke="#1E1A22" stroke-width="2" stroke-linecap="round" stroke-linejoin="round"/>
<path d="M16.51 27.4514L18.4888 26.2148" stroke="#1E1A22" stroke-width="2" stroke-linecap="round" stroke-linejoin="round"/>
<path d="M45.5684 32.8228L46.735 34.8435" stroke="#1E1A22" stroke-width="2" stroke-linecap="round" stroke-linejoin="round"/>
<path d="M9.40161 34.8435L10.5683 32.8228" stroke="#1E1A22" stroke-width="2" stroke-linecap="round" stroke-linejoin="round"/>
<path d="M48.877 43.1729L49.1209 45.4933" stroke="#1E1A22" stroke-width="2" stroke-linecap="round" stroke-linejoin="round"/>
<path d="M5.71021 45.4933L5.95411 43.1729" stroke="#1E1A22" stroke-width="2" stroke-linecap="round" stroke-linejoin="round"/>
<path d="M49.0004 11.666L10.5 20.9993" stroke="#1E1A22" stroke-width="2" stroke-linecap="round"/>
<path d="M18.6667 8.16602L33.8333 15.166L19.8333 18.666L14 10.4993L18.6667 8.16602Z" stroke="#1E1A22" stroke-width="2" stroke-linecap="round" stroke-linejoin="round"/>
<path d="M10.5 20.9997L7 16.333" stroke="#1E1A22" stroke-width="2" stroke-linecap="round" stroke-linejoin="round"/>
</svg>
