<svg width="56" height="56" viewBox="0 0 56 56" fill="none" xmlns="http://www.w3.org/2000/svg">
<path fill-rule="evenodd" clip-rule="evenodd" d="M16.3633 6.16454C14.3324 6.71701 12.8403 8.34099 12.2159 10.6785C11.947 11.6855 11.9261 13.5047 12.1713 14.5692C12.9915 18.1301 15.4582 21.1278 19.3628 23.3086C20.7011 24.0562 21.0401 24.1696 21.506 24.0261C21.947 23.8902 22.2114 23.5817 22.271 23.1335C22.3331 22.667 22.0763 22.3251 21.4047 21.98C16.7924 19.6092 14.2856 16.3031 14.2822 12.5863C14.2803 10.6106 15.1933 8.94289 16.6141 8.32664C17.1119 8.11074 17.1967 8.10266 19.4351 8.05909L21.7429 8.01414L22.0272 7.752C22.3848 7.42247 22.475 6.98388 22.2679 6.58207C21.9773 6.01791 21.8514 5.99359 19.259 6.0009C17.3009 6.00648 16.851 6.03192 16.3633 6.16454ZM19.0179 15.939C18.6888 15.986 18.2413 16.3989 18.1716 16.7199C18.0646 17.2129 18.3151 17.6774 18.8031 17.8907C19.0825 18.0129 20.291 18.027 30.4145 18.027H41.714V20.0374C41.714 22.7515 41.5253 23.628 40.5607 25.3953C40.0641 26.3053 40.0082 26.7165 40.33 27.0933C40.7404 27.5739 41.3628 27.6522 41.9202 27.2935C42.2505 27.0809 43.2174 25.27 43.5179 24.3012C43.9561 22.8888 44 22.4489 44 19.48C44 16.4549 43.9892 16.3818 43.4947 16.0723C43.268 15.9303 42.5363 15.9207 31.2635 15.912C24.6689 15.9068 19.1585 15.9189 19.0179 15.939ZM26.3687 22.0433C26.0454 22.119 25.7781 22.3273 25.6264 22.6218C25.5054 22.8565 25.4784 23.2485 25.4784 24.7654V26.6218H23.4693C21.2634 26.6218 20.9887 26.6692 20.6687 27.1043C20.5011 27.3325 20.484 27.5384 20.4566 29.673C20.421 32.4554 20.4455 32.6607 20.8587 33.0412L21.1676 33.3257H23.323H25.4784V35.1764C25.4784 37.1443 25.5262 37.4106 25.9417 37.752C26.1143 37.894 26.3115 37.9291 27.0742 37.9535L27.9977 37.983V42.96V47.9368H22.0634C16.7643 47.9368 16.0948 47.9519 15.8077 48.0774C15.2577 48.3178 15.055 48.9504 15.3561 49.4867C15.663 50.0335 14.7485 49.9996 29.1989 49.9996H42.3528L42.6382 49.7784C42.7951 49.6567 42.9704 49.4132 43.0277 49.2371C43.1653 48.8143 42.9628 48.3506 42.536 48.111C42.2347 47.9417 42.0806 47.9374 36.2321 47.9372L30.2371 47.9368V42.9519V37.9669L31.1002 37.9663C31.7961 37.9659 32.0163 37.9336 32.237 37.7997C32.7283 37.5012 32.7495 37.3978 32.7531 35.281L32.7564 33.3257L34.8792 33.3227C37.1771 33.3194 37.2895 33.2999 37.6134 32.8473C37.7817 32.6121 37.7937 32.4219 37.7931 30.0167C37.7922 27.2441 37.7816 27.1757 37.2985 26.8449C37.0523 26.6763 36.8982 26.6632 34.8959 26.6388L32.7564 26.6128V24.6522C32.7564 21.8417 32.9386 21.976 29.1437 21.9906C27.718 21.9961 26.4692 22.0198 26.3687 22.0433ZM15.5223 23.5771C14.8362 23.8985 14.7529 24.4572 15.2374 25.4895C15.8723 26.8421 16.6937 27.9834 17.2463 28.2807C17.8842 28.6238 18.7393 28.1892 18.8247 27.4785C18.8669 27.1273 18.829 27.036 18.3801 26.4069C18.1101 26.0288 17.6665 25.2858 17.394 24.7558C17.0959 24.1759 16.8089 23.7381 16.673 23.6561C16.3311 23.4497 15.8629 23.4177 15.5223 23.5771ZM30.517 25.9857C30.517 28.8083 30.4193 28.7156 33.4329 28.7561L35.5556 28.7846V30.0193V31.2541L33.3645 31.2801L31.1734 31.306L30.8685 31.5868L30.5637 31.8676L30.5356 33.8859L30.5074 35.9042H29.1668H27.8264L27.7954 33.9489C27.7514 31.1672 27.8588 31.263 24.7816 31.263H22.7725V30.0227V28.7823L24.8529 28.7549C27.8535 28.7154 27.7513 28.8096 27.7942 26.0457L27.8239 24.1293H29.1705H30.517V25.9857ZM36.0222 35.2781C35.422 35.5599 35.2203 36.2816 35.5945 36.8078C35.672 36.9167 35.9783 37.1126 36.2753 37.2431C37.6609 37.8523 38.5594 38.5837 38.6861 39.2058C38.8273 39.8988 38.0089 40.7788 36.6579 41.3868C36.2302 41.5792 35.7845 41.8305 35.6676 41.9452C35.2183 42.3857 35.3489 43.1813 35.9214 43.4928C36.3733 43.7386 36.7737 43.6769 37.7672 43.2081C39.9693 42.169 41.0432 40.8259 40.9518 39.225C40.8701 37.7914 39.6939 36.4772 37.6488 35.5342C36.7881 35.1375 36.439 35.0825 36.0222 35.2781Z" fill="black"/>
</svg>
