<svg width="280" height="280" viewBox="0 0 280 280" fill="none" xmlns="http://www.w3.org/2000/svg">
<g clip-path="url(#clip0_382_25254)">
<path d="M275.542 153.97C278.005 153.97 280.001 151.975 280.001 149.512V90.0638C280.001 77.1159 269.467 66.582 256.519 66.582H222.931V37.7497C222.931 35.2866 220.935 33.291 218.472 33.291H4.45922C1.99609 33.291 0.000546875 35.2866 0.000546875 37.7497V173.291C0.000546875 175.754 1.99609 177.75 4.45922 177.75C6.92234 177.75 8.91789 175.754 8.91789 173.291V113.545H214.014V213.246V213.715C214.014 223.203 218.039 231.767 224.47 237.792H32.9941C19.7181 237.792 8.91734 226.991 8.91734 213.715V197.07C8.91734 194.607 6.9218 192.611 4.45867 192.611C1.99555 192.611 0 194.607 0 197.07V213.715C0 231.908 14.8006 246.708 32.9935 246.708H247.006C247.006 246.708 247.007 246.708 247.008 246.708C247.009 246.708 247.012 246.708 247.014 246.708C255.725 246.708 263.918 243.358 270.139 237.24C276.498 230.987 280.001 222.633 280.001 213.715V173.291C280.001 170.828 278.005 168.832 275.542 168.832C273.079 168.832 271.083 170.828 271.083 173.291V213.715C271.083 220.223 268.528 226.32 263.887 230.883C259.298 235.397 253.24 237.835 246.799 237.787C245.869 237.779 244.939 237.716 244.017 237.6C232.176 236.088 222.93 225.672 222.93 213.246V180.128H237.495C239.958 180.128 241.954 178.132 241.954 175.669V90.0638C241.954 82.0323 248.487 75.4988 256.519 75.4988C264.55 75.4988 271.084 82.0323 271.084 90.0638V149.512C271.083 151.974 273.079 153.97 275.542 153.97ZM214.014 104.629H8.91789V42.2078H214.014V104.629ZM233.037 90.0638V171.21H222.93V75.4988H238.111C234.935 79.5047 233.037 84.5666 233.037 90.0638Z" fill="#EBEBEB"/>
<path d="M61.5292 52.3145C59.0661 52.3145 57.0705 54.31 57.0705 56.7731V78.0116L36.379 53.8714C33.7409 50.7941 28.5352 52.7295 28.5352 56.7731V90.0641C28.5352 92.5273 30.5307 94.5228 32.9938 94.5228C35.457 94.5228 37.4525 92.5273 37.4525 90.0641V68.8257L58.1441 92.9653C60.7849 96.0464 65.9879 94.1034 65.9879 90.0636V56.7726C65.9873 54.31 63.9918 52.3145 61.5292 52.3145Z" fill="#EBEBEB"/>
<path d="M99.5758 85.6055H80.2552V75.4992H90.064C92.5271 75.4992 94.5227 73.5037 94.5227 71.0405C94.5227 68.5774 92.5271 66.5819 90.064 66.5819H80.2552V61.2318H99.5758C102.039 61.2318 104.034 59.2362 104.034 56.7731C104.034 54.31 102.039 52.3145 99.5758 52.3145H75.7966C73.3334 52.3145 71.3379 54.31 71.3379 56.7731V90.0641C71.3379 92.5273 73.3334 94.5228 75.7966 94.5228H99.5758C102.039 94.5228 104.034 92.5273 104.034 90.0641C104.034 87.601 102.038 85.6055 99.5758 85.6055Z" fill="#EBEBEB"/>
<path d="M153.114 52.4863C150.747 51.807 148.278 53.1802 147.603 55.5477L141.674 76.2977L137.006 64.628C136.328 62.9348 134.689 61.8252 132.866 61.8252C131.042 61.8252 129.403 62.9348 128.726 64.628L124.058 76.2977L118.129 55.5477C117.452 53.1797 114.982 51.807 112.617 52.4863C110.25 53.1627 108.879 55.6302 109.556 57.9977L119.068 91.2887C119.591 93.1218 121.223 94.419 123.126 94.5169C125.041 94.6235 126.786 93.4904 127.494 91.7196L132.866 78.2895L138.238 91.7196C138.919 93.4188 140.562 94.5223 142.377 94.5223C142.453 94.5223 142.529 94.5207 142.606 94.5163C144.51 94.419 146.142 93.1218 146.665 91.2881L156.177 57.9971C156.853 55.6308 155.482 53.1633 153.114 52.4863Z" fill="#EBEBEB"/>
<path d="M189.937 71.338H170.617V61.2318H189.937C192.4 61.2318 194.396 59.2362 194.396 56.7731C194.396 54.31 192.4 52.3145 189.937 52.3145H166.158C163.695 52.3145 161.699 54.31 161.699 56.7731V75.7967C161.699 78.2598 163.695 80.2554 166.158 80.2554H185.478V85.6055H166.158C163.695 85.6055 161.699 87.601 161.699 90.0641C161.699 92.5273 163.695 94.5228 166.158 94.5228H189.937C192.4 94.5228 194.396 92.5273 194.396 90.0641V75.7967C194.396 73.3336 192.4 71.338 189.937 71.338Z" fill="#EBEBEB"/>
<path d="M90.0641 123.652H32.9938C30.5307 123.652 28.5352 125.648 28.5352 128.111V175.669C28.5352 178.133 30.5307 180.128 32.9938 180.128H90.0641C92.5272 180.128 94.5227 178.133 94.5227 175.669V128.111C94.5227 125.648 92.5272 123.652 90.0641 123.652ZM85.6054 171.211H37.4525V132.57H85.6054V171.211Z" fill="#EBEBEB"/>
<path d="M189.937 147.432H123.355C120.892 147.432 118.896 149.427 118.896 151.89C118.896 154.353 120.892 156.349 123.355 156.349H189.937C192.4 156.349 194.396 154.353 194.396 151.89C194.396 149.427 192.4 147.432 189.937 147.432Z" fill="#EBEBEB"/>
<path d="M189.937 123.652H123.355C120.892 123.652 118.896 125.648 118.896 128.111C118.896 130.574 120.892 132.57 123.355 132.57H189.937C192.4 132.57 194.396 130.574 194.396 128.111C194.396 125.648 192.4 123.652 189.937 123.652Z" fill="#EBEBEB"/>
<path d="M189.937 171.211H123.355C120.892 171.211 118.896 173.206 118.896 175.67C118.896 178.133 120.892 180.128 123.355 180.128H189.937C192.4 180.128 194.396 178.133 194.396 175.67C194.396 173.206 192.4 171.211 189.937 171.211Z" fill="#EBEBEB"/>
<path d="M189.937 194.988H123.355C120.892 194.988 118.896 196.984 118.896 199.447C118.896 201.91 120.892 203.906 123.355 203.906H189.937C192.4 203.906 194.396 201.91 194.396 199.447C194.396 196.984 192.4 194.988 189.937 194.988Z" fill="#EBEBEB"/>
<path d="M94.8195 194.99H28.238C25.7748 194.99 23.7793 196.986 23.7793 199.449C23.7793 201.912 25.7748 203.908 28.238 203.908H94.8195C97.2826 203.908 99.2781 201.912 99.2781 199.449C99.2781 196.986 97.2826 194.99 94.8195 194.99Z" fill="#EBEBEB"/>
<path d="M94.8195 218.77H28.238C25.7748 218.77 23.7793 220.765 23.7793 223.228C23.7793 225.691 25.7748 227.687 28.238 227.687H94.8195C97.2826 227.687 99.2781 225.691 99.2781 223.228C99.2781 220.765 97.2826 218.77 94.8195 218.77Z" fill="#EBEBEB"/>
<path d="M189.937 218.77H123.355C120.892 218.77 118.896 220.765 118.896 223.228C118.896 225.691 120.892 227.687 123.355 227.687H189.937C192.4 227.687 194.396 225.691 194.396 223.228C194.396 220.765 192.4 218.77 189.937 218.77Z" fill="#EBEBEB"/>
</g>
<defs>
<clipPath id="clip0_382_25254">
<rect width="280" height="280" fill="white"/>
</clipPath>
</defs>
</svg>
